<svg width="75" height="75" viewBox="0 0 75 75" fill="none" xmlns="http://www.w3.org/2000/svg">
<g clip-path="url(#clip0_3_109)">
<path d="M10.332 37H19.332V35.92L15.156 35.452H14.436L10.332 35.92V37ZM10.476 11.8L15.228 12.196H15.588V10.684H10.476V11.8ZM14.004 37H15.48V23.356L15.264 10.684H14.076L14.004 37ZM24.768 37H26.064L35.532 12.952L35.928 11.944H36.54V10.684H34.992L26.316 32.644L26.1 33.148H26.928L17.928 10.684H14.436V11.944H14.652L24.768 37ZM31.536 37H42.588V35.92L37.404 35.452H36.612L31.536 35.92V37ZM35.064 37H38.952C38.844 33.004 38.844 28.936 38.844 24.796V22.924C38.844 18.82 38.844 14.68 38.952 10.684H35.28L35.136 25.3C35.136 28.864 35.136 32.968 35.064 37ZM36.972 12.196H37.404L42.48 11.8V10.684H36.972V12.196Z" fill="white"/>
<path d="M57.016 37.576C60.364 37.576 62.848 36.028 64.396 33.472L63.82 32.968C62.38 34.696 60.616 35.632 58.06 35.632C54.136 35.632 51.328 33.076 51.328 27.208C51.328 21.808 53.668 18.856 56.62 18.856C59.392 18.856 61.048 20.944 61.048 24.04C61.048 25.66 60.652 26.308 59.32 26.308H49.204V27.46H64.18C64.324 26.884 64.396 26.164 64.396 25.3C64.396 21.016 61.588 17.704 56.764 17.704C51.868 17.704 47.62 21.448 47.62 27.64C47.62 34.192 51.544 37.576 57.016 37.576Z" fill="white"/>
<path d="M13.44 68H22.548V66.992L18.804 66.596H17.292L13.44 66.992V68ZM16.248 68H19.992C19.92 66.236 19.884 62.168 19.884 59.72V53.24L19.632 49.064L19.164 48.776L13.188 50.36V51.296L16.248 51.476C16.356 53.24 16.392 54.968 16.392 57.38V59.72C16.392 62.168 16.356 66.236 16.248 68ZM25.716 68H34.86V66.992L31.044 66.596H29.568L25.716 66.992V68ZM28.524 68H32.232C32.16 66.236 32.124 62.276 32.124 59.72V55.508C32.124 50.684 30.144 48.704 26.94 48.704C24.42 48.704 21.9 49.928 19.272 53.204H18.84L19.128 54.5C21.612 51.692 23.88 50.756 25.5 50.756C27.516 50.756 28.632 51.98 28.632 55.364V59.72C28.632 62.276 28.596 66.236 28.524 68Z" fill="white"/>
<path d="M53.544 69.612C59.556 69.612 62.868 66.048 62.904 58.56L62.976 42.684H61.464L61.536 57.948C61.536 64.752 59.196 67.488 54.444 67.488C50.232 67.488 47.712 65.076 47.712 58.38V54.852C47.712 50.712 47.712 46.68 47.784 42.684H43.896C44.004 46.716 44.004 50.784 44.004 54.852V58.92C44.004 66.696 47.82 69.612 53.544 69.612ZM40.548 43.8L45.588 44.196H46.416L51.6 43.8V42.684H40.548V43.8ZM57.144 43.8L61.752 44.232H62.58L66.504 43.8V42.684H57.144V43.8Z" fill="white"/>
</g>
<defs>
<clipPath id="clip0_3_109">
<rect width="75" height="75" fill="white"/>
</clipPath>
</defs>
</svg>
